<svg width="600" height="600" viewBox="0 0 600 600" fill="none" xmlns="http://www.w3.org/2000/svg">
<mask id="mask0" mask-type="alpha" maskUnits="userSpaceOnUse" x="0" y="0" width="600" height="600">
<circle cx="300" cy="300" r="300" fill="#C4C4C4"/>
</mask>
<g mask="url(#mask0)">
<rect width="1024" height="1024" fill="black"/>
<path d="M472.691 298.871C473.917 275.042 455.114 260.674 437.011 247.65C425.274 176.921 315.256 177.972 286 180.659C228.422 142.579 163.895 140.943 157.471 143.98C156.011 149.178 157.004 214.476 175.398 252.439C175.398 252.439 146.901 268.851 136.04 306.347C159.515 272.005 204.421 260.849 204.421 260.849C189.005 227.208 181.355 170.672 183.34 170.905C241.21 176.979 281.387 204.255 281.387 204.255C396.893 199.582 411.025 240.466 413.653 261.141C448.749 285.263 451.844 297.002 449.274 306.23C449.216 306.347 449.216 306.522 449.157 306.639C448.982 307.165 448.807 307.691 448.632 308.216H448.69C439.872 336.484 422.471 362.241 422.762 363.292C426.091 375.09 429.303 419.362 382.178 421.932C374.644 353.13 280.919 411.185 269.415 457.617C295.226 422.574 368.747 385.895 362.557 445.703C453.011 446.17 453.07 387.823 447.639 368.023C468.253 333.856 473.1 304.303 472.691 298.871Z" fill="white"/>
<path d="M207.107 285.321C183.691 291.687 162.493 304.478 139.602 334.44H159.982C149.646 352.721 145.091 367.731 146.901 394.948C158.172 361.014 184.8 331.403 208.509 312.947H179.661L207.107 285.321Z" fill="white"/>
</g>
</svg>
